<?xml version="1.0" encoding="UTF-8"?>
<svg id="Livello_1" xmlns="http://www.w3.org/2000/svg" version="1.1" viewBox="0 0 141.73 141.73">
  <!-- Generator: Adobe Illustrator 29.8.2, SVG Export Plug-In . SVG Version: 2.1.1 Build 3)  -->
  <defs>
    <style>
      .st0 {
        fill: #e94e1b;
      }
    </style>
  </defs>
  <polygon class="st0" points="38.12 103.62 57.3 103.62 38.12 84.44 38.12 103.62"/>
  <polygon class="st0" points="103.62 84.44 84.44 103.62 103.62 103.62 103.62 84.44"/>
  <polygon class="st0" points="38.12 38.12 38.12 57.3 57.3 38.12 38.12 38.12"/>
  <polygon class="st0" points="103.62 38.12 84.44 38.12 103.62 57.3 103.62 38.12"/>
  <polygon class="st0" points="70.87 117.19 84.44 103.62 57.3 103.62 70.87 117.19"/>
  <polygon class="st0" points="24.55 70.87 38.12 84.44 38.12 57.3 24.55 70.87"/>
  <polygon class="st0" points="70.87 24.55 57.3 38.12 84.44 38.12 70.87 24.55"/>
  <polygon class="st0" points="117.19 70.87 103.62 57.3 103.62 84.44 117.19 70.87"/>
  <path class="st0" d="M103.62,57.3l-19.18-19.18h-27.13l-19.18,19.18v27.13l19.18,19.18h27.13l19.18-19.18v-27.13ZM70.87,81.12l-15.77,11.46,6.02-18.54-15.77-11.46h19.49l6.02-18.54,6.02,18.54h19.49l-15.77,11.46,6.02,18.54-15.77-11.46h.02Z"/>
</svg>